<svg width="220" height="220" viewBox="0 0 58.208 58.208" xmlns="http://www.w3.org/2000/svg">
    <g style="font-weight:700;font-size:1.41111px;font-family:'Droid Sans';-inkscape-font-specification:'Droid Sans Bold';fill:#ffd700;fill-opacity:1;stroke-width:.499999" aria-label="SUFFICIENT CONTRAST">
        <path style="text-align:center;text-anchor:middle;fill:#ffd700;fill-opacity:1;stroke-width:.5" d="M89.939 103.452q0 .067-.024.122-.023.053-.067.092-.045.038-.11.058-.063.021-.147.021-.073 0-.141-.015-.067-.015-.125-.045v-.199l.066.031q.034.015.069.026.035.012.07.019.034.007.069.007t.06-.008q.025-.008.04-.022.016-.015.023-.034.008-.02.008-.043 0-.028-.013-.05-.011-.022-.033-.04-.022-.02-.053-.038-.03-.018-.068-.038-.032-.016-.07-.04-.04-.023-.075-.058-.035-.035-.058-.084-.024-.05-.024-.118 0-.068.022-.12.023-.054.064-.091.042-.037.1-.057.06-.019.133-.019.036 0 .07.005.036.005.07.014.034.009.068.022.035.013.071.03l-.068.166-.058-.025q-.027-.011-.053-.019-.025-.008-.05-.01-.024-.005-.049-.005-.054 0-.083.03-.028.027-.028.075 0 .025.008.045.01.02.028.037.02.017.049.035.03.018.073.04.052.028.095.057.043.028.074.064.032.034.05.078.017.044.017.103zm.95-.728v.652q0 .078-.024.146-.023.067-.072.117-.048.05-.121.078-.073.028-.172.028-.093 0-.165-.026-.07-.027-.119-.076-.047-.049-.072-.117-.025-.069-.025-.153v-.65h.213v.634q0 .056.011.096t.032.065q.022.025.055.036.032.012.076.012.09 0 .13-.052.04-.053.04-.158v-.632zm.457 1.007h-.21v-1.007h.577v.175h-.367v.26h.342v.174h-.342zm.775 0h-.21v-1.007h.577v.175h-.367v.26h.341v.174h-.341zm.94 0h-.457v-.12l.122-.057v-.652l-.122-.057v-.121h.458v.121l-.123.057v.652l.123.056zm.587-.844q-.061 0-.109.024-.046.024-.079.069-.032.044-.048.108-.017.063-.017.142 0 .081.015.144.015.062.045.106.031.043.079.065.048.022.114.022.062 0 .123-.013.062-.014.134-.04v.18q-.033.013-.065.023-.033.01-.066.016-.034.006-.07.009-.035.003-.076.003-.116 0-.202-.037-.085-.038-.14-.105-.057-.068-.084-.163-.026-.095-.026-.211 0-.115.03-.21.032-.096.092-.164.06-.07.148-.107.088-.039.202-.039.075 0 .15.02.076.018.145.051l-.069.174q-.056-.027-.113-.047-.058-.02-.113-.02zm.848.844h-.458v-.12l.123-.057v-.652l-.123-.057v-.121h.458v.121l-.122.057v.652l.122.056zm.753 0h-.58v-1.007h.58v.175h-.367v.221h.341v.175h-.34v.26h.366zm1.06 0h-.27l-.396-.762h-.006l.007.106.004.094.002.088v.474h-.191v-1.007h.27l.395.755h.004l-.005-.104-.002-.045-.001-.046-.002-.045v-.515h.192zm.622 0h-.213v-.83h-.252v-.177h.718v.178h-.253zM90.222 104.101q-.061 0-.109.024-.047.024-.079.069-.032.044-.048.108-.017.063-.017.142 0 .08.015.144.015.062.045.106.031.042.079.065.048.022.114.022.061 0 .123-.014.062-.013.134-.039v.18q-.033.013-.065.023-.033.01-.067.016-.033.006-.07.009-.034.003-.075.003-.116 0-.202-.038-.085-.037-.141-.104-.056-.068-.083-.163-.027-.095-.027-.211 0-.115.031-.21.031-.096.091-.165t.149-.106q.088-.039.202-.039.075 0 .15.02.076.018.145.051l-.069.174q-.056-.027-.114-.047-.057-.02-.112-.02zm1.302.34q0 .116-.028.211-.027.096-.083.164-.055.069-.14.106-.086.037-.201.037-.116 0-.202-.037-.084-.037-.14-.106-.055-.068-.083-.164-.027-.096-.027-.213 0-.117.027-.212.028-.096.084-.164.055-.067.14-.104.086-.037.202-.037.116 0 .2.037.085.037.14.105.056.068.083.163.028.095.028.213zm-.684 0q0 .078.014.142.014.063.042.107.029.043.072.066.044.024.104.024.061 0 .104-.024.044-.023.072-.066.028-.044.041-.107.014-.064.014-.143 0-.079-.014-.142-.013-.063-.041-.107-.028-.044-.07-.068-.044-.023-.105-.023-.06 0-.104.023-.044.024-.073.068-.028.044-.042.107-.014.063-.014.142zm1.743.504h-.271l-.396-.762h-.007q.005.053.007.106.003.044.004.094.003.049.003.088v.474h-.191v-1.007h.27l.395.754h.004l-.005-.103-.002-.045-.002-.046-.001-.045v-.515h.192zm.621 0h-.213v-.83h-.253v-.177h.718v.178h-.252zm.621-.56h.058q.089 0 .127-.035.039-.036.039-.105 0-.071-.041-.102-.042-.03-.129-.03h-.054zm0 .174v.386h-.214v-1.007h.276q.194 0 .286.075.092.074.092.227 0 .051-.014.093-.013.042-.037.076-.022.032-.053.057-.03.024-.062.04l.137.22.05.08.044.07.032.05.011.02h-.237l-.218-.387zm1.25.386-.07-.24h-.346l-.07.24h-.216l.328-1.011h.26l.33 1.011zm-.119-.419-.064-.22-.013-.04-.018-.063-.017-.069-.012-.058-.007.035-.01.045-.012.046-.012.044-.01.036-.007.024-.064.22zm1.013.14q0 .067-.023.121-.023.054-.068.093-.044.038-.109.058-.064.021-.147.021-.073 0-.141-.015-.068-.015-.126-.046v-.198q.033.016.067.03.034.015.068.027.035.012.07.019.035.007.07.007t.06-.008q.025-.008.04-.022.016-.015.023-.034.007-.02.007-.043 0-.029-.012-.05-.012-.022-.034-.04-.021-.02-.052-.038-.03-.018-.068-.038-.032-.016-.071-.04-.04-.023-.075-.058-.034-.035-.058-.084-.023-.05-.023-.118 0-.068.022-.121.023-.054.064-.09.041-.037.1-.057.06-.02.132-.02.037 0 .071.006.035.005.07.014.034.009.068.022.035.013.071.03l-.069.166-.058-.025q-.027-.011-.052-.019-.026-.008-.05-.01-.024-.005-.05-.005-.053 0-.082.029-.028.028-.028.076 0 .025.008.045.01.02.028.037.019.017.049.035.03.018.073.04.051.028.095.057.043.028.074.063.032.035.049.079t.017.103zm.555.28h-.213v-.83h-.253v-.178h.718v.178h-.252z" transform="translate(-178.153 -189.852) scale(2.2225)"/>
    </g>
    <g style="fill:#ffd700">
        <path style="color:#000;opacity:.84022;fill:#ffd700;-inkscape-stroke:none" d="M105 49.822c-54.433 0-98.678 44.245-98.678 98.678S50.567 247.178 105 247.178s98.678-44.245 98.678-98.678S159.433 49.822 105 49.822zm0 11c48.488 0 87.678 39.19 87.678 87.678s-39.19 87.678-87.678 87.678-87.678-39.19-87.678-87.678S56.512 60.822 105 60.822z" transform="matrix(.28154 0 0 .28154 -.457 -12.704)"/>
        <path style="color:#000;opacity:.84022;fill:#ffd700;-inkscape-stroke:none" d="M105 78.353c-38.676 0-70.147 31.471-70.147 70.147S66.324 218.647 105 218.647s70.147-31.471 70.147-70.147S143.676 78.353 105 78.353zm0 11c23.462 0 43.675 13.575 53.244 33.317H51.756c9.57-19.742 29.782-33.316 53.244-33.316ZM53.88 178.29h102.24c-10.239 17.571-29.265 29.358-51.12 29.358-21.855 0-40.881-11.787-51.12-29.358z" transform="matrix(.28154 0 0 .28154 -.457 -12.704)"/>
        <g style="fill:#ffd700">
            <path style="opacity:.84022;fill:#ffd700;stroke-width:11" transform="matrix(0 .28154 -.28154 0 -.14 -17.451)" d="M169.894-183.249a4.532 4.532 0 0 1-4.532 4.532 4.532 4.532 0 0 1-4.531-4.532 4.532 4.532 0 0 1 4.531-4.532 4.532 4.532 0 0 1 4.532 4.532z"/>
            <path style="opacity:.84022;fill:#ffd700;stroke-width:11" transform="scale(-.28154) rotate(-72 42.907 30.65)" d="M129.702-229.265a4.532 4.532 0 0 1-4.532 4.532 4.532 4.532 0 0 1-4.532-4.532 4.532 4.532 0 0 1 4.532-4.531 4.532 4.532 0 0 1 4.532 4.531z"/>
            <path style="opacity:.84022;fill:#ffd700;stroke-width:11" transform="scale(-.28154) rotate(-54 61.075 30.505)" d="M77.257-260.608a4.532 4.532 0 0 1-4.532 4.531 4.532 4.532 0 0 1-4.531-4.531 4.532 4.532 0 0 1 4.531-4.532 4.532 4.532 0 0 1 4.532 4.532z"/>
            <path style="opacity:.84022;fill:#ffd700;stroke-width:11" transform="scale(-.28154) rotate(-36 95.635 30.228)" d="M17.693-274.211a4.532 4.532 0 0 1-4.531 4.531 4.532 4.532 0 0 1-4.532-4.531 4.532 4.532 0 0 1 4.532-4.532 4.532 4.532 0 0 1 4.531 4.532z"/>
            <path style="opacity:.84022;fill:#ffd700;stroke-width:11" transform="matrix(-.26776 .087 -.087 -.26776 -.14 -17.451)" d="M-43.159-268.743a4.532 4.532 0 0 1-4.531 4.532 4.532 4.532 0 0 1-4.532-4.532 4.532 4.532 0 0 1 4.532-4.531 4.532 4.532 0 0 1 4.531 4.531z"/>
            <path style="opacity:.84022;fill:#ffd700;stroke-width:11" transform="matrix(-.28154 0 0 -.28154 -.14 -17.451)" d="M-99.342-244.737a4.532 4.532 0 0 1-4.532 4.531 4.532 4.532 0 0 1-4.532-4.531 4.532 4.532 0 0 1 4.532-4.532 4.532 4.532 0 0 1 4.532 4.532z"/>
            <path style="opacity:.84022;fill:#ffd700;stroke-width:11" transform="matrix(-.26776 -.087 .087 -.26776 -.14 -17.451)" d="M-145.358-204.545a4.532 4.532 0 0 1-4.532 4.532 4.532 4.532 0 0 1-4.531-4.532 4.532 4.532 0 0 1 4.531-4.532 4.532 4.532 0 0 1 4.532 4.532z"/>
            <path style="opacity:.84022;fill:#ffd700;stroke-width:11" transform="scale(-.28154) rotate(36 -95.137 31.758)" d="M-176.702-152.1a4.532 4.532 0 0 1-4.531 4.531 4.532 4.532 0 0 1-4.532-4.531 4.532 4.532 0 0 1 4.532-4.532 4.532 4.532 0 0 1 4.531 4.532z"/>
            <path style="opacity:.84022;fill:#ffd700;stroke-width:11" transform="scale(-.28154) rotate(54 -60.578 31.48)" d="M-190.305-92.537a4.532 4.532 0 0 1-4.531 4.532 4.532 4.532 0 0 1-4.532-4.532 4.532 4.532 0 0 1 4.532-4.531 4.532 4.532 0 0 1 4.531 4.531z"/>
            <path style="opacity:.84022;fill:#ffd700;stroke-width:11" transform="scale(-.28154) rotate(72 -42.41 31.335)" d="M-184.836-31.685a4.532 4.532 0 0 1-4.532 4.532 4.532 4.532 0 0 1-4.531-4.532 4.532 4.532 0 0 1 4.531-4.531 4.532 4.532 0 0 1 4.532 4.531z"/>
            <path style="opacity:.84022;fill:#ffd700;stroke-width:11" transform="matrix(0 -.28154 .28154 0 -.14 -17.451)" d="M-160.83 24.499a4.532 4.532 0 0 1-4.532 4.532 4.532 4.532 0 0 1-4.532-4.532 4.532 4.532 0 0 1 4.532-4.532 4.532 4.532 0 0 1 4.531 4.532z"/>
            <path style="opacity:.84022;fill:#ffd700;stroke-width:11" transform="matrix(.087 -.26776 .26776 .087 -.14 -17.451)" d="M-120.638 70.515a4.532 4.532 0 0 1-4.532 4.531 4.532 4.532 0 0 1-4.532-4.531 4.532 4.532 0 0 1 4.532-4.532 4.532 4.532 0 0 1 4.532 4.532z"/>
            <path style="opacity:.84022;fill:#ffd700;stroke-width:11" transform="scale(.28154) rotate(-54 -61.075 -30.505)" d="M-68.194 101.858a4.532 4.532 0 0 1-4.531 4.532 4.532 4.532 0 0 1-4.532-4.532 4.532 4.532 0 0 1 4.532-4.531 4.532 4.532 0 0 1 4.531 4.531z"/>
            <path style="opacity:.84022;fill:#ffd700;stroke-width:11" transform="scale(.28154) rotate(-36 -95.635 -30.228)" d="M-8.63 115.461a4.532 4.532 0 0 1-4.532 4.532 4.532 4.532 0 0 1-4.531-4.532 4.532 4.532 0 0 1 4.531-4.531 4.532 4.532 0 0 1 4.532 4.531z"/>
            <path style="opacity:.84022;fill:#ffd700;stroke-width:11" transform="matrix(.26776 -.087 .087 .26776 -.14 -17.451)" d="M52.222 109.993a4.532 4.532 0 0 1-4.532 4.531 4.532 4.532 0 0 1-4.531-4.531 4.532 4.532 0 0 1 4.531-4.532 4.532 4.532 0 0 1 4.532 4.532z"/>
            <path style="opacity:.84022;fill:#ffd700;stroke-width:11" d="M108.406 85.987a4.532 4.532 0 0 1-4.532 4.532 4.532 4.532 0 0 1-4.532-4.532 4.532 4.532 0 0 1 4.532-4.531 4.532 4.532 0 0 1 4.532 4.531z" transform="matrix(.28154 0 0 .28154 -.14 -17.451)"/>
            <path style="opacity:.84022;fill:#ffd700;stroke-width:11" transform="matrix(.26776 .087 -.087 .26776 -.14 -17.451)" d="M154.421 45.795a4.532 4.532 0 0 1-4.531 4.532 4.532 4.532 0 0 1-4.532-4.532 4.532 4.532 0 0 1 4.532-4.532 4.532 4.532 0 0 1 4.531 4.532z"/>
            <path style="opacity:.84022;fill:#ffd700;stroke-width:11" transform="scale(.28154) rotate(36 95.137 -31.758)" d="M185.765-6.65a4.532 4.532 0 0 1-4.532 4.532 4.532 4.532 0 0 1-4.531-4.532 4.532 4.532 0 0 1 4.531-4.531 4.532 4.532 0 0 1 4.532 4.531z"/>
            <path style="opacity:.84022;fill:#ffd700;stroke-width:11" transform="scale(.28154) rotate(54 60.578 -31.48)" d="M199.368-66.213a4.532 4.532 0 0 1-4.532 4.531 4.532 4.532 0 0 1-4.531-4.531 4.532 4.532 0 0 1 4.531-4.532 4.532 4.532 0 0 1 4.532 4.532z"/>
            <path style="opacity:.84022;fill:#ffd700;stroke-width:11" transform="scale(.28154) rotate(72 42.41 -31.335)" d="M193.9-127.065a4.532 4.532 0 0 1-4.532 4.531 4.532 4.532 0 0 1-4.532-4.531 4.532 4.532 0 0 1 4.532-4.532 4.532 4.532 0 0 1 4.531 4.532z"/>
        </g>
    </g>
    <g style="fill:#ffd700">
        <path style="font-weight:700;font-size:5.64444px;font-family:'Droid Sans';-inkscape-font-specification:'Droid Sans';letter-spacing:.717021px;opacity:.84022;fill:#ffd700;stroke-width:54.9508" d="m94.667 118.711-1.377-4.79h-6.94l-1.39 4.79h-4.31L87.19 98.5h5.219l6.567 20.211zm-2.368-8.37-1.295-4.406q-.082-.248-.247-.813-.166-.564-.358-1.239-.18-.688-.345-1.377-.165-.688-.234-1.17-.055.303-.151.716-.083.413-.207.881-.11.455-.234.923l-.234.88q-.11.414-.206.73l-.124.469-1.28 4.405zM117.654 118.711l-1.377-4.79h-6.939l-1.39 4.79h-4.31l6.54-20.211h5.218l6.568 20.211zm-2.368-8.37-1.294-4.406q-.083-.248-.248-.813-.165-.564-.358-1.239-.179-.688-.344-1.377-.165-.688-.234-1.17-.055.303-.152.716-.082.413-.206.881-.11.455-.234.923l-.234.88q-.11.414-.207.73-.082.317-.124.469l-1.28 4.405z" aria-label="A" transform="matrix(.28154 0 0 .28154 .583 -12.704)"/>
    </g>
</svg>
