<svg width="220" height="220" viewBox="0 0 58.208 58.208" xmlns="http://www.w3.org/2000/svg"><path style="color:#000;fill:#32cd32;fill-opacity:1;-inkscape-stroke:none" d="m109.52 42.39-8.886 8.497-9.609-7.67-7.275 9.912-10.795-5.886-5.443 11.024-11.653-3.921-3.446 11.802-12.157-1.839-1.345 12.222-12.29.3.797 12.269-12.053 2.43 2.917 11.945-11.447 4.486 4.946 11.256-10.495 6.406 6.826 10.226-9.223 8.131 8.498 8.886-7.67 9.609 9.911 7.275-5.885 10.795 11.024 5.443-3.921 11.653 11.802 3.446-1.839 12.157 12.222 1.344.3 12.292 12.27-.798 2.43 12.052 11.944-2.916 4.486 11.448 11.256-4.947 6.406 10.495 10.226-6.826 8.131 9.223 8.886-8.498 9.609 7.67 7.275-9.912 10.795 5.886 5.443-11.024 11.653 3.921 3.446-11.802 12.157 1.839 1.345-12.222 12.291-.3-.798-12.269 12.053-2.43-2.917-11.944 11.447-4.487-4.946-11.256 10.495-6.406-6.826-10.226 9.223-8.13-8.499-8.887 7.671-9.609-9.911-7.275 5.885-10.795-11.024-5.443 3.921-11.653-11.802-3.447 1.839-12.156-12.221-1.344-.301-12.292-12.27.798-2.43-12.052-11.944 2.916-4.486-11.448-11.256 4.947-6.406-10.495-10.226 6.826zM105 59.013c49.469 0 89.487 40.016 89.487 89.486 0 49.47-40.018 89.489-89.488 89.489s-89.486-40.02-89.486-89.49c0-49.469 40.017-89.485 89.486-89.485z" transform="translate(1.614 -9.775) scale(.26181)"/><path style="color:#000;fill:#32cd32;fill-opacity:1;-inkscape-stroke:none" d="M104.999 62.702c-47.361 0-85.797 38.436-85.797 85.797S57.638 234.298 105 234.298s85.799-38.438 85.799-85.799c0-47.361-38.438-85.797-85.799-85.797zm0 4c45.2 0 81.799 36.598 81.799 81.797 0 45.2-36.6 81.799-81.799 81.799-45.2 0-81.797-36.6-81.797-81.799 0-45.2 36.598-81.797 81.797-81.797z" transform="translate(1.614 -9.775) scale(.26181)"/><path style="color:#000;fill:#32cd32;fill-opacity:1;-inkscape-stroke:none" d="M104.999 70.474c-42.986 0-78.025 35.04-78.025 78.025 0 .05.004.1.004.152h18c0-.051-.004-.101-.004-.152 0-33.258 26.767-60.025 60.025-60.025 33.258 0 60.026 26.767 60.026 60.025 0 .05-.003.1-.004.152h18c0-.051.004-.101.004-.152 0-42.986-35.04-78.025-78.026-78.025z" transform="translate(1.614 -9.775) scale(.26181)"/><path style="fill:#32cd32;fill-opacity:1;stroke-width:4" d="M56.872 171.894a53.589 53.589 0 0 0 48.127 30.194 53.589 53.589 0 0 0 48.202-30.194z" transform="translate(1.614 -9.775) scale(.26181)"/><g style="fill:#32cd32;fill-opacity:1"><path style="font-weight:700;font-size:5.64444px;font-family:'Droid Sans';-inkscape-font-specification:'Droid Sans Bold';fill:#32cd32;fill-opacity:1;stroke-width:68.6279" d="m-141.23 15.778-1.05-3.657h-5.297l-1.06 3.657h-3.29l4.991-15.426h3.983l5.012 15.426zm-1.807-6.389-.988-3.362q-.063-.19-.189-.62-.126-.431-.273-.946-.137-.525-.263-1.05-.126-.526-.179-.894-.042.231-.115.546-.063.316-.158.673-.084.346-.179.704l-.178.672q-.084.316-.158.557l-.094.358-.978 3.362zm23.059 16.318-1.05-3.657h-5.296l-1.062 3.657h-3.289l4.992-15.426h3.982l5.012 15.426zm-1.807-6.389-.988-3.362q-.063-.19-.189-.62-.126-.431-.273-.946-.137-.525-.263-1.05-.126-.526-.179-.894-.042.231-.115.546-.063.316-.158.673-.084.346-.179.704l-.178.672q-.084.316-.158.557l-.094.358-.978 3.362zm-40.697 6.182-1.05-3.656h-5.297l-1.061 3.657h-3.289l4.991-15.426h3.983l5.012 15.426zm-1.807-6.388-.988-3.363q-.063-.189-.19-.62-.125-.43-.272-.945-.137-.526-.263-1.051-.126-.526-.179-.893-.042.23-.116.546-.062.315-.157.673-.084.346-.179.704-.094.357-.179.672-.084.315-.157.557-.063.242-.095.357l-.977 3.363z" aria-label="A" transform="translate(67.482 15.675) scale(.26181)"/></g><path style="font-weight:700;font-size:5.64444px;font-family:'Liberation Sans';-inkscape-font-specification:'Liberation Sans Bold';letter-spacing:.717021px;fill:#32cd32;fill-opacity:1;stroke-width:3.03587" d="m41.095 154.799-3.641.231.382 6.02-1.904.122-.382-6.021-4.317.274-.156-2.463 11.765-.747.551 8.675-1.904.121zm-7.023 17.925 2.676-1.734-1.071-4.364-3.175-.297-.588-2.397 12.475 1.366.694 2.828-10.429 6.97zm8.9-5.579-.19-.006q-.313-.009-.715-.032-.401-.02-4.454-.388l.807 3.29 3.014-1.936 1.02-.62zm-3.94 18.016 6.04-8.504q-1.132.697-1.86 1.038l-6.296 2.95-.93-1.985 10.675-5.002 1.197 2.553-6.077 8.604q1.08-.672 2.02-1.113l6.205-2.907.93 1.985-10.675 5.002zm14.749 5.103-8.082 5.687-1.42-2.019 8.081-5.686-2.19-3.114 1.56-1.098 5.807 8.253-1.56 1.098zm1.516 16.382 1.385-2.872-3.182-3.172-2.867 1.395-1.748-1.742 11.369-5.314 2.062 2.056-5.29 11.374zm4.706-9.39-.166.094q-.272.154-.626.344-.355.19-4.008 1.983l2.4 2.392 1.568-3.22.549-1.06zm9.891 16.023q-.97 1.434-2.553 1.474-1.572.038-3.63-1.354-1.878-1.271-2.495-2.659-.617-1.387-.006-2.945l2.196 1.011q-.325.912.018 1.66.348.74 1.38 1.439 2.141 1.449 3.023.146.281-.416.215-.855-.06-.434-.388-.92-.322-.48-1.417-1.594-.92-.997-1.247-1.44-.322-.45-.528-.893-.2-.45-.242-.911-.04-.463.093-.958.14-.491.492-1.011.895-1.324 2.36-1.353 1.476-.031 3.375 1.254 1.815 1.228 2.339 2.41.53 1.188-.093 2.676l-2.165-1.071q.274-.734.018-1.371-.249-.633-1.122-1.224-1.857-1.257-2.645-.093-.258.381-.228.755.037.379.308.814.275.43 1.287 1.488 1.205 1.25 1.634 1.914.441.662.565 1.24.128.572-.003 1.17-.127.591-.54 1.201zm10.517-2.187-4.009 9.032-2.256-1.002 4.009-9.032-3.48-1.544.774-1.743 9.223 4.093-.774 1.743zm2.865 11.55 3.311-11.314 2.37.693-3.312 11.315zm12.386.911q2.212.31 3.385-1.79l2.017 1.102q-.925 1.594-2.375 2.236-1.44.635-3.297.375-2.817-.395-4.135-2.201-1.31-1.814-.908-4.681.402-2.875 2.101-4.21 1.7-1.333 4.516-.938 2.055.287 3.232 1.297 1.178 1.001 1.476 2.673l-2.237.287q-.15-.916-.882-1.543-.722-.633-1.808-.785-1.657-.232-2.663.675-.997.908-1.274 2.888-.282 2.014.448 3.198.738 1.184 2.404 1.417zm20.908-.233q2.209-.332 2.737-2.678l2.247.484q-.434 1.79-1.642 2.818-1.201 1.017-3.055 1.295-2.813.422-4.59-.936-1.77-1.368-2.2-4.23-.43-2.872.82-4.633 1.251-1.761 4.064-2.183 2.052-.307 3.467.327 1.414.625 2.175 2.144l-2.064.91q-.404-.836-1.284-1.229-.872-.402-1.956-.24-1.655.248-2.362 1.403-.698 1.154-.402 3.132.301 2.01 1.337 2.938 1.044.927 2.708.677zm17.861-9.534q.636 1.727.435 3.29-.2 1.562-1.215 2.73-1.017 1.159-2.714 1.783-2.606.96-4.654-.024-2.043-.996-3.025-3.666-.98-2.661-.053-4.697.927-2.035 3.557-3.003t4.662-.003q2.039.961 3.007 3.592zm-2.363.87q-.66-1.79-1.88-2.491-1.224-.709-2.755-.146-1.555.573-2.03 1.898-.478 1.317.187 3.123.67 1.822 1.921 2.556 1.256.723 2.756.171 1.555-.572 2.019-1.902.472-1.333-.219-3.21zm14.134-.95-9.155-4.999q.825 1.043 1.25 1.726l3.67 5.905-1.862 1.157-6.223-10.013 2.395-1.488 9.259 5.022q-.795-.993-1.343-1.874l-3.617-5.82 1.862-1.158 6.223 10.013zm3.273-15.2 6.654 7.306-1.825 1.662-6.653-7.306-2.815 2.564-1.285-1.41 7.46-6.795 1.285 1.41zm16.758-4.317-5.22-.53-1.75 2.305 3.563 2.708-1.493 1.966-9.387-7.133 3.564-4.69q1.276-1.679 2.695-2.04 1.414-.366 2.766.662.986.749 1.28 1.855.288 1.102-.21 2.226l5.873.46zm-6.686-4.713q-1.352-1.027-2.668.705l-1.914 2.518 2.772 2.106 1.954-2.572q.627-.826.578-1.536-.05-.71-.722-1.22zm13.896-8.183-3.165-.38-1.97 4.039 2.25 2.26-1.082 2.218-8.712-9.032 1.276-2.617 12.474 1.316zm-10.409-1.408.144.126q.234.207.528.481.295.274 3.175 3.15l1.485-3.047-3.555-.44-1.18-.175zm11.924-14.552q1.672.45 2.227 1.933.548 1.473-.097 3.873-.588 2.19-1.699 3.225-1.11 1.036-2.78.968l.238-2.405q.968.01 1.563-.559.586-.57.91-1.774.67-2.497-.848-2.905-.485-.13-.878.076-.392.198-.743.667-.349.46-1.045 1.859-.642 1.196-.955 1.65-.32.45-.671.79-.36.336-.783.525-.423.19-.935.225-.51.028-1.116-.135-1.544-.415-2.05-1.79-.51-1.385.084-3.599.57-2.117 1.516-2.997.95-.889 2.56-.785l-.307 2.395q-.783-.02-1.302.43-.517.442-.79 1.46-.583 2.165.775 2.53.444.12.788-.03.345-.159.669-.557.316-.4.986-1.702.788-1.547 1.276-2.17.482-.632.989-.938.498-.308 1.106-.378.6-.073 1.312.118zm-5.507-9.226 9.846.84-.21 2.459-9.846-.84-.323 3.794-1.9-.162.856-10.054 1.901.162z" aria-label="FANTASTIC CONTRAST" transform="translate(1.614 -9.775) scale(.26181)"/></svg>