<?xml version="1.0" encoding="utf-8"?>
<svg viewBox="0 0 500 500" xmlns="http://www.w3.org/2000/svg">
  <circle style="stroke: rgb(0, 0, 0); fill: rgb(255, 255, 255);" cx="247.565" cy="248.376" r="227.656"/>
  <path fill-rule="nonzero" d="M 247.615 496.707 C 243.784 496.707 239.963 496.609 236.171 496.433 L 234.673 496.433 L 234.673 496.365 C 171.57 493.107 114.718 466.082 72.831 424.053 C 28.094 379.165 0.422 317.145 0.422 248.667 C 0.422 180.189 28.094 118.179 72.831 73.291 C 114.718 31.261 171.58 4.237 234.673 0.969 L 234.673 0.9 L 236.171 0.9 C 239.963 0.725 243.784 0.637 247.615 0.637 L 250.979 0.657 L 251.057 0.637 C 319.304 0.637 381.105 28.403 425.841 73.291 C 470.568 118.179 498.25 180.189 498.25 248.667 C 498.25 317.145 470.568 379.165 425.841 424.053 C 381.105 468.941 319.304 496.707 251.057 496.707 L 250.979 496.677 L 247.615 496.707 Z M 234.673 466.892 L 234.673 30.452 C 179.65 33.681 130.13 57.388 93.561 94.091 C 54.133 133.642 29.757 188.296 29.757 248.667 C 29.757 309.048 54.133 363.701 93.561 403.253 C 130.13 439.946 179.65 463.653 234.673 466.892 Z" style=""/>
</svg>