<svg width="220" height="220" viewBox="0 0 58.208 58.208" xmlns="http://www.w3.org/2000/svg">
    <g style="fill:gold">
        <path style="color:#000;fill:gold;-inkscape-stroke:none" d="M105 49.822c-54.433 0-98.678 44.245-98.678 98.678S50.567 247.178 105 247.178s98.678-44.245 98.678-98.678S159.433 49.822 105 49.822zm0 11c48.488 0 87.678 39.19 87.678 87.678s-39.19 87.678-87.678 87.678-87.678-39.19-87.678-87.678S56.512 60.822 105 60.822z" transform="translate(-.457 -12.704) scale(.28154)"/>
        <path style="color:#000;fill:gold;-inkscape-stroke:none" d="M105 78.353c-38.676 0-70.147 31.471-70.147 70.147S66.324 218.647 105 218.647s70.147-31.471 70.147-70.147S143.676 78.353 105 78.353zm0 11c23.462 0 43.675 13.575 53.244 33.317H51.756c9.57-19.742 29.782-33.316 53.244-33.316ZM53.88 178.29h102.24c-10.239 17.571-29.265 29.358-51.12 29.358-21.855 0-40.881-11.787-51.12-29.358z" transform="translate(-.457 -12.704) scale(.28154)"/>
        <g style="fill:gold">
            <path style="fill:gold;stroke-width:11" transform="rotate(90 8.655 -8.796) scale(.28154)" d="M169.894-183.249a4.532 4.532 0 0 1-4.532 4.532 4.532 4.532 0 0 1-4.531-4.532 4.532 4.532 0 0 1 4.531-4.532 4.532 4.532 0 0 1 4.532 4.532z"/>
            <path style="fill:gold;stroke-width:11" transform="rotate(108 6.27 -8.777) scale(.28154)" d="M129.702-229.265a4.532 4.532 0 0 1-4.532 4.532 4.532 4.532 0 0 1-4.532-4.532 4.532 4.532 0 0 1 4.532-4.531 4.532 4.532 0 0 1 4.532 4.531z"/>
            <path style="fill:gold;stroke-width:11" transform="rotate(126 4.376 -8.761) scale(.28154)" d="M77.257-260.608a4.532 4.532 0 0 1-4.532 4.531 4.532 4.532 0 0 1-4.531-4.531 4.532 4.532 0 0 1 4.531-4.532 4.532 4.532 0 0 1 4.532 4.532z"/>
            <path style="fill:gold;stroke-width:11" transform="rotate(144 2.765 -8.748) scale(.28154)" d="M17.693-274.211a4.532 4.532 0 0 1-4.531 4.531 4.532 4.532 0 0 1-4.532-4.531 4.532 4.532 0 0 1 4.532-4.532 4.532 4.532 0 0 1 4.531 4.532z"/>
            <path style="fill:gold;stroke-width:11" transform="rotate(162 1.312 -8.737) scale(.28154)" d="M-43.159-268.743a4.532 4.532 0 0 1-4.531 4.532 4.532 4.532 0 0 1-4.532-4.532 4.532 4.532 0 0 1 4.532-4.531 4.532 4.532 0 0 1 4.531 4.531z"/>
            <path style="fill:gold;stroke-width:11" transform="rotate(180 -.07 -8.726) scale(.28154)" d="M-99.342-244.737a4.532 4.532 0 0 1-4.532 4.531 4.532 4.532 0 0 1-4.532-4.531 4.532 4.532 0 0 1 4.532-4.532 4.532 4.532 0 0 1 4.532 4.532z"/>
            <path style="fill:gold;stroke-width:11" transform="rotate(-162 -1.452 -8.714) scale(.28154)" d="M-145.358-204.545a4.532 4.532 0 0 1-4.532 4.532 4.532 4.532 0 0 1-4.531-4.532 4.532 4.532 0 0 1 4.531-4.532 4.532 4.532 0 0 1 4.532 4.532z"/>
            <path style="fill:gold;stroke-width:11" transform="rotate(-144 -2.905 -8.703) scale(.28154)" d="M-176.702-152.1a4.532 4.532 0 0 1-4.531 4.531 4.532 4.532 0 0 1-4.532-4.531 4.532 4.532 0 0 1 4.532-4.532 4.532 4.532 0 0 1 4.531 4.532z"/>
            <path style="fill:gold;stroke-width:11" transform="rotate(-126 -4.516 -8.69) scale(.28154)" d="M-190.305-92.537a4.532 4.532 0 0 1-4.531 4.532 4.532 4.532 0 0 1-4.532-4.532 4.532 4.532 0 0 1 4.532-4.531 4.532 4.532 0 0 1 4.531 4.531z"/>
            <path style="fill:gold;stroke-width:11" transform="rotate(-108 -6.41 -8.675) scale(.28154)" d="M-184.836-31.685a4.532 4.532 0 0 1-4.532 4.532 4.532 4.532 0 0 1-4.531-4.532 4.532 4.532 0 0 1 4.531-4.531 4.532 4.532 0 0 1 4.532 4.531z"/>
            <path style="fill:gold;stroke-width:11" transform="rotate(-90 -8.796 -8.655) scale(.28154)" d="M-160.83 24.499a4.532 4.532 0 0 1-4.532 4.532 4.532 4.532 0 0 1-4.532-4.532 4.532 4.532 0 0 1 4.532-4.532 4.532 4.532 0 0 1 4.531 4.532z"/>
            <path style="fill:gold;stroke-width:11" transform="rotate(-72 -12.08 -8.63) scale(.28154)" d="M-120.638 70.515a4.532 4.532 0 0 1-4.532 4.531 4.532 4.532 0 0 1-4.532-4.531 4.532 4.532 0 0 1 4.532-4.532 4.532 4.532 0 0 1 4.532 4.532z"/>
            <path style="fill:gold;stroke-width:11" transform="rotate(-54 -17.195 -8.588) scale(.28154)" d="M-68.194 101.858a4.532 4.532 0 0 1-4.531 4.532 4.532 4.532 0 0 1-4.532-4.532 4.532 4.532 0 0 1 4.532-4.531 4.532 4.532 0 0 1 4.531 4.531z"/>
            <path style="fill:gold;stroke-width:11" transform="rotate(-36 -26.925 -8.51) scale(.28154)" d="M-8.63 115.461a4.532 4.532 0 0 1-4.532 4.532 4.532 4.532 0 0 1-4.531-4.532 4.532 4.532 0 0 1 4.531-4.531 4.532 4.532 0 0 1 4.532 4.531z"/>
            <path style="fill:gold;stroke-width:11" transform="rotate(-18 -55.16 -8.284) scale(.28154)" d="M52.222 109.993a4.532 4.532 0 0 1-4.532 4.531 4.532 4.532 0 0 1-4.531-4.531 4.532 4.532 0 0 1 4.531-4.532 4.532 4.532 0 0 1 4.532 4.532z"/>
            <path style="fill:gold;stroke-width:11" d="M108.406 85.987a4.532 4.532 0 0 1-4.532 4.532 4.532 4.532 0 0 1-4.532-4.532 4.532 4.532 0 0 1 4.532-4.531 4.532 4.532 0 0 1 4.532 4.531z" transform="translate(-.14 -17.451) scale(.28154)"/>
            <path style="fill:gold;stroke-width:11" transform="rotate(18 55.02 -9.168) scale(.28154)" d="M154.421 45.795a4.532 4.532 0 0 1-4.531 4.532 4.532 4.532 0 0 1-4.532-4.532 4.532 4.532 0 0 1 4.532-4.532 4.532 4.532 0 0 1 4.531 4.532z"/>
            <path style="fill:gold;stroke-width:11" transform="rotate(36 26.785 -8.941) scale(.28154)" d="M185.765-6.65a4.532 4.532 0 0 1-4.532 4.532 4.532 4.532 0 0 1-4.531-4.532 4.532 4.532 0 0 1 4.531-4.531 4.532 4.532 0 0 1 4.532 4.531z"/>
            <path style="fill:gold;stroke-width:11" transform="rotate(54 17.055 -8.863) scale(.28154)" d="M199.368-66.213a4.532 4.532 0 0 1-4.532 4.531 4.532 4.532 0 0 1-4.531-4.531 4.532 4.532 0 0 1 4.531-4.532 4.532 4.532 0 0 1 4.532 4.532z"/>
            <path style="fill:gold;stroke-width:11" transform="rotate(72 11.94 -8.822) scale(.28154)" d="M193.9-127.065a4.532 4.532 0 0 1-4.532 4.531 4.532 4.532 0 0 1-4.532-4.531 4.532 4.532 0 0 1 4.532-4.532 4.532 4.532 0 0 1 4.531 4.532z"/>
        </g>
    </g>
    <g style="fill:gold">
        <path style="font-weight:700;font-size:5.64444px;font-family:'Droid Sans';-inkscape-font-specification:'Droid Sans';letter-spacing:.717021px;fill:gold;stroke-width:54.9508" d="m94.667 118.711-1.377-4.79h-6.94l-1.39 4.79h-4.31L87.19 98.5h5.219l6.567 20.211zm-2.368-8.37-1.295-4.406q-.082-.248-.247-.813-.166-.564-.358-1.239-.18-.688-.345-1.377-.165-.688-.234-1.17-.055.303-.151.716-.083.413-.207.881-.11.455-.234.923l-.234.88q-.11.414-.206.73l-.124.469-1.28 4.405zm25.355 8.37-1.377-4.79h-6.939l-1.39 4.79h-4.31l6.54-20.211h5.218l6.568 20.211zm-2.368-8.37-1.294-4.406q-.083-.248-.248-.813-.165-.564-.358-1.239-.179-.688-.344-1.377-.165-.688-.234-1.17-.055.303-.152.716-.082.413-.206.881-.11.455-.234.923l-.234.88q-.11.414-.207.73-.082.317-.124.469l-1.28 4.405z" aria-label="A" transform="translate(.583 -12.704) scale(.28154)"/>
    </g>
    <path d="M20.175 40.16a1.336 1.336 0 0 1-.083.461.857.857 0 0 1-.226.344.581.581 0 0 1-.335.147.832.832 0 0 1-.402-.075 2.143 2.143 0 0 1-.35-.19 3.725 3.725 0 0 1-.305-.224 2.76 2.76 0 0 0-.006-.549 8.951 8.951 0 0 0 .386.204c.066.033.13.062.192.086.064.026.128.044.19.056a.44.44 0 0 0 .164.003.232.232 0 0 0 .113-.057.25.25 0 0 0 .064-.109.46.46 0 0 0-.017-.313.47.47 0 0 0-.098-.137.883.883 0 0 0-.151-.124 3.25 3.25 0 0 0-.196-.123 6.978 6.978 0 0 1-.205-.122 1.214 1.214 0 0 1-.212-.167.66.66 0 0 1-.197-.553c.01-.12.038-.23.08-.327a.88.88 0 0 1 .16-.254.683.683 0 0 1 .242-.172.907.907 0 0 1 .35-.065c.067 0 .134.005.2.016.069.01.137.027.204.048.069.022.138.048.208.079.07.031.141.067.214.108a2.267 2.267 0 0 1-.162.498 3.702 3.702 0 0 0-.16-.08 1.561 1.561 0 0 0-.147-.06.95.95 0 0 0-.277-.055c-.1-.005-.176.02-.231.071a.29.29 0 0 0-.089.203.302.302 0 0 0 .016.122.306.306 0 0 0 .071.101.932.932 0 0 0 .134.1c.056.036.122.075.202.122.095.055.184.112.264.172.08.059.15.125.208.199.06.073.106.157.139.255.032.098.05.217.048.36zm2.594-2.21c.101.721.05 1.76.024 2.38-.01.23-.046.476-.112.727-.065.252-.16.492-.28.695-.121.205-.263.36-.422.445a.5.5 0 0 1-.499-.012 1 1 0 0 1-.39-.402 2.723 2.723 0 0 1-.232-.586 5.628 5.628 0 0 1-.133-.63 3.92 3.92 0 0 1-.049-.614c.004-.423.063-1.506-.043-2.003h.59c.11.57.051 1.569.042 2.035-.003.135.004.266.02.383.014.116.038.222.07.313.034.09.078.166.132.223.055.058.12.1.198.123.163.05.29-.015.378-.184.088-.167.14-.42.15-.704.018-.543.072-1.523-.034-2.188h.59zm1.01 5.237a27.473 27.473 0 0 1-.576-.263c.366-2.15.319-4.398.25-4.973h1.601c.026.34.036.624.04.863-.336-.018-.672-.036-1.008-.056.006.31-.003.637-.01.916.313.037.624.072.937.106-.005.2-.014.468-.024.733a61.762 61.762 0 0 1-.937-.15c-.022.536-.07 1.504-.274 2.824zm2.177.808a14.17 14.17 0 0 1-.6-.188c.317-2.814.294-5.07.244-5.855h1.601c.01.374.014.685.015.947a76.2 76.2 0 0 1-1.006-.034c.003.355-.004.711-.011 1.029.313.026.624.048.937.067-.004.227-.01.51-.019.811-.314-.027-.627-.059-.94-.096a52.36 52.36 0 0 1-.22 3.32zm2.755.45-.051-.001c-.438-.016-.871-.06-1.302-.13.031-.536.055-1.007.074-1.417.125-.178.248-.346.369-.507.054-1.557.066-2.87.067-3.464a11.25 11.25 0 0 1-.336-.278 47.405 47.405 0 0 0-.01-.696H28.793l-.005.708a8.053 8.053 0 0 1-.337.274c-.003.662-.01 1.859-.05 3.496a15.023 15.023 0 0 1 .338.565l-.028 1.45zm1.683-5.585a.462.462 0 0 0-.3.117.879.879 0 0 0-.22.302 1.772 1.772 0 0 0-.133.445c-.03.172-.046.366-.046.61 0 .247.012.502.039.755.027.252.07.502.126.722.059.217.133.401.223.531.093.126.2.188.325.177a.629.629 0 0 0 .344-.16 3.18 3.18 0 0 0 .37-.376c.01.475.027 1.07.055 1.782-.059.122-.118.23-.178.323s-.122.173-.186.238a.771.771 0 0 1-.2.152.558.558 0 0 1-.222.078c-.232.029-.431-.128-.602-.44-.17-.309-.306-.728-.41-1.19a11.99 11.99 0 0 1-.224-1.391 11.154 11.154 0 0 1-.065-1.203c.002-.353.031-.621.09-.882.056-.259.143-.51.254-.74.112-.232.252-.443.419-.602.168-.164.355-.253.569-.253.14 0 .276.045.411.128.137.08.265.187.387.312a29.76 29.76 0 0 1-.21.85 3.533 3.533 0 0 0-.31-.198.602.602 0 0 0-.306-.087zm2.51 4.931c-.436.143-.875.267-1.32.367a84.97 84.97 0 0 1-.062-1.37c.109-.207.217-.4.326-.58a80.75 80.75 0 0 1-.048-3.318 6.18 6.18 0 0 1-.33-.255c.005-.2.015-.425.03-.683h1.27c-.02.243-.033.457-.04.646-.117.093-.231.182-.346.269-.009.417.002 1.947.059 3.23.121.135.243.273.368.419.023.37.052.796.093 1.275zm2.115-.825a24.53 24.53 0 0 1-1.625.657c-.254-2.615-.212-4.97-.146-5.671l1.608-.001c-.04.304-.056.56-.063.778-.338.02-.673.04-1.01.058-.008.285-.005.56 0 .81.313-.031.625-.064.94-.098l.014.642c-.315.048-.627.095-.941.14.008.35.022.88.06 1.502a47.56 47.56 0 0 0 1.012-.272c.028.398.073.884.15 1.455zm2.872-1.334c-.24.108-.481.22-.723.334-.685-1.61-.929-2.272-1.292-3.067l-.017.001c.007.115.016.223.023.33a10.153 10.153 0 0 1 .03.593c.009.433.01 1.432.206 2.639l-.521.242c-.29-1.938-.231-4.248-.158-4.753h.747c.172 1.175.653 1.493 1.057 2.526l.011-.003c-.009-.145-.017-.298-.023-.417a7.34 7.34 0 0 0-.008-.162l-.005-.157-.006-.144-.002-.12c-.007-.391-.053-.954.057-1.524h.531c-.052.252-.116 2.652.093 3.682zm1.645-.668c-.188.065-.375.135-.563.209-.27-1.212-.113-1.877-.105-2.668-.236.01-.471.022-.706.034.004-.174.02-.368.068-.59h1.99a1.816 1.816 0 0 0-.048.509c-.237.006-.473.014-.709.023.003.772-.153 1.497.073 2.483z" style="font-weight:700;font-size:3.9128px;font-family:'Droid Sans';-inkscape-font-specification:'Droid Sans Bold';text-align:center;text-anchor:middle;opacity:1;fill:gold;stroke-width:1.67691;fill-opacity:1" aria-label="SUFFICIENT" transform="translate(0 .53)"/>
</svg>
