<svg width="220" height="220" viewBox="0 0 58.208 58.208" xmlns="http://www.w3.org/2000/svg">
    <path style="color:#000;fill:#32cd32;stroke-width:.242317;-inkscape-stroke:none;fill-opacity:1" d="M29.103 5.18C18.448 5.18 9.41 12.168 6.32 21.805H.105l5 7.827-5 7.828h6.581c3.395 9.085 12.157 15.566 22.417 15.566 10.261 0 19.023-6.48 22.418-15.566h6.582l-5-7.828 5-7.827h-6.216c-3.09-9.637-12.128-16.627-22.784-16.627zm0 2.117c9.496 0 17.558 6.05 20.556 14.509h-2.914l1.041-2.131-2.672-.49.751-2.611-2.716-.019.285-2.701-2.678.453-.188-2.71-2.559.911-.655-2.636-2.362 1.342-1.103-2.482-2.093 1.731L30.28 8.21l-1.76 2.069-1.886-1.956-1.374 2.343-2.197-1.598-.947 2.546-2.44-1.192-.49 2.672-2.611-.751-.019 2.716-2.701-.285.453 2.678-2.71.188.911 2.559-2.636.655.54.952H8.55c2.998-8.46 11.06-14.51 20.554-14.51zm.001 5.11a16.696 16.696 0 0 1 15.015 9.399H14.11a16.696 16.696 0 0 1 14.994-9.399zM8.955 37.461h1.991l-.524 1.072 2.672.49-.751 2.611 2.716.019-.285 2.701 2.678-.453.188 2.71 2.559-.911.655 2.636 2.362-1.342 1.103 2.482 2.093-1.731 1.517 2.253 1.76-2.069 1.886 1.956 1.374-2.343 2.197 1.598.947-2.546 2.44 1.192.49-2.672 2.611.751.019-2.716 2.701.285-.453-2.678 2.71-.188-.911-2.559 2.207-.548h1.347c-3.276 7.9-11.056 13.451-20.15 13.451-9.095 0-16.874-5.55-20.149-13.451zm5.788 0h28.762a16.696 16.696 0 0 1-.442.794H41.07l-.031.05h-23.87l-.031-.05H15.19a16.696 16.696 0 0 1-.447-.794zm18.095 1.867c.086 0 .167.012.246.034.08.023.157.054.232.094.077.04.153.088.229.142.075.055.152.116.232.182-.065.206-.21.669-.276.874a6.206 6.206 0 0 0-.199-.111 1.69 1.69 0 0 0-.18-.083.87.87 0 0 0-.172-.049.682.682 0 0 0-.17-.015.35.35 0 0 0-.29.158.645.645 0 0 0-.1.37c-.001.08.008.15.027.21.021.057.053.11.097.16.044.05.102.1.17.149.071.05.156.104.256.167.12.075.231.153.333.236a1.298 1.298 0 0 1 .441.697c.044.167.069.374.078.653a7.187 7.187 0 0 1-.214 1.974 2.922 2.922 0 0 1-.332.803c-.139.22-.307.366-.508.421a.67.67 0 0 1-.525-.074c-.172-.099-.334-.269-.485-.498-.04-.82-.06-1.505-.072-2.045l.241.236c.082.074.164.141.247.2.085.06.169.105.251.134.085.03.166.038.247.023a.378.378 0 0 0 .208-.11.668.668 0 0 0 .134-.226c.033-.092.056-.193.068-.301.014-.112.019-.227.015-.343a1.21 1.21 0 0 0-.053-.347.836.836 0 0 0-.124-.25 1.06 1.06 0 0 0-.186-.206 3.755 3.755 0 0 0-.24-.194 6.169 6.169 0 0 1-.25-.196 1.633 1.633 0 0 1-.261-.277 1.603 1.603 0 0 1-.204-.392 1.595 1.595 0 0 1-.082-.55c0-.214.029-.418.084-.61.058-.196.139-.376.242-.53a1.24 1.24 0 0 1 .371-.376.878.878 0 0 1 .474-.134zm7.736.032c.176 0 .343.028.507.077.166.048.323.112.474.19-.105.207-.185.419-.256.616a4.511 4.511 0 0 0-.41-.15 1.19 1.19 0 0 0-.397-.056.846.846 0 0 0-.385.1.788.788 0 0 0-.277.252 1.106 1.106 0 0 0-.157.382 2.204 2.204 0 0 0-.047.505c.002.195.016.377.048.541.033.165.084.308.155.425a.626.626 0 0 0 .277.246.733.733 0 0 0 .4.032 2.2 2.2 0 0 0 .428-.118c.144-.053.305-.12.478-.194-.01.213-.015.437.013.645-.07.049-.14.096-.209.139a2.887 2.887 0 0 1-.436.237c-.075.036-.159.07-.25.102-.262.093-.498.117-.718.045a1.091 1.091 0 0 1-.553-.43 2.145 2.145 0 0 1-.317-.752 4.023 4.023 0 0 1-.096-.859 2.56 2.56 0 0 1 .091-.755 1.662 1.662 0 0 1 .892-1.058c.228-.11.477-.163.745-.162zm-11.189.04h.914c.29 2.5.593 2.472 1.225 7.087-.262.05-.524.094-.787.131a145.236 145.236 0 0 0-.305-2.678c-.407.029-.813.046-1.221.052a70.714 70.714 0 0 0-.261 2.763c-.24.003-.48 0-.722-.01l-.075-.004c.032-.305.063-.59.093-.858.453-4.048.732-4.12 1.14-6.483zm-9.492.002h.914c.317.842 1.073 3.06.925 5.638a63.58 63.58 0 0 1-.735-.322c.06-.777.035-1.399-.014-1.891a66.14 66.14 0 0 0-1.197-.258c-.095.39-.223.894-.42 1.42-.239-.105-.478-.208-.716-.307.298-.683 1.238-4.14 1.243-4.28zm-3.31.016 2.02.003c.058.26.076.493.08.706-.43-.02-.862-.04-1.295-.055-.002.304-.032.591-.042.89.41.015.817.038 1.222.067-.006.217-.006.4-.004.642-.403-.04-.808-.072-1.217-.093.014.43.076 1.075-.048 1.585a13.813 13.813 0 0 0-.696-.218 7.239 7.239 0 0 0-.02-3.527zm21.925.004a4.318 4.318 0 0 0-.07.535c-.147.08-.298.165-.442.245-.025.852-.03 1.472.05 2.755.148.077.299.155.45.23.022.244.056.512.11.801-.512.211-1.042.437-1.562.657a15.14 15.14 0 0 1-.126-1c.128-.182.259-.35.392-.507-.042-.639-.062-2.781-.058-2.896a7.419 7.419 0 0 1-.417-.22 6.36 6.36 0 0 1 .069-.598l1.604-.002zm-1.862.002a6.886 6.886 0 0 0-.08.857c.307-.018-1.187.065-.88.048-.006.212-.03 2.894.231 4.782-.247.1-.494.198-.743.293-.258-2.093-.236-4.781-.228-5.035l-.879.044c.008-.28.026-.605.067-.986l2.512-.003zm-14.242.002h.942c.43 1.103 1.094 2.59 1.36 4.083l.014.002a26.607 26.607 0 0 0 .015-.997 45.165 45.165 0 0 0 .004-.491l.004-.19c.014-.63.036-1.456-.032-2.405h.67c.054.932.076 3.716-.213 6.84-.325-.085-.648-.18-.969-.284-.093-3.144-.711-4.382-1.086-5.304l-.022-.001c.01.152.016.3.02.444.004.124.006.257.006.4.002.141 0 .275-.003.4-.016.61-.043 1.897-.285 3.57a32.917 32.917 0 0 1-.661-.268c.37-2.327.318-5.13.236-5.8zm3.522.003 2.385.001h.126l-.004 1.119-.124-.001a81.584 81.584 0 0 1-.745-.008c0 .634-.005 2.995-.133 6.147a13.792 13.792 0 0 1-.781-.104c.178-3.03.181-5.495.179-6.056a93.997 93.997 0 0 1-.873-.024c-.003-.303-.01-.657-.03-1.074zm-5.496.636a1.93 1.93 0 0 1-.02.146 3.866 3.866 0 0 1-.119.502 3.425 3.425 0 0 1-.04.13l-.024.083c-.09.283-.156.501-.24.825.286.037.572.076.858.116a22.539 22.539 0 0 0-.247-1.058l-.059-.235-.06-.27a4.765 4.765 0 0 1-.05-.239zm9.396.26a5.834 5.834 0 0 1-.029.199 12.544 12.544 0 0 1-.12.682 7.188 7.188 0 0 1-.037.176l-.021.113c-.074.354-.149.723-.224 1.175.286-.005.57-.013.855-.025a28.242 28.242 0 0 0-.27-1.351c-.018-.089-.04-.19-.06-.3-.02-.113-.04-.228-.057-.35a4.352 4.352 0 0 1-.037-.32z"/>
    <g style="fill:#32cd32;fill-opacity:1">
        <path style="font-weight:700;font-size:5.64444px;font-family:'Droid Sans';-inkscape-font-specification:'Droid Sans';letter-spacing:.717021px;fill:#32cd32;stroke-width:15.4708;fill-opacity:1" d="m37.384 21.256-.387-1.349h-1.954l-.391 1.349h-1.214l1.842-5.69h1.469l1.849 5.69zm-.666-2.357-.365-1.24q-.023-.07-.07-.23l-.1-.348q-.05-.194-.097-.388-.046-.193-.066-.329-.015.085-.043.202-.023.116-.058.248-.03.128-.066.26l-.065.247q-.031.117-.059.206l-.035.132-.36 1.24zM23.082 21.445l-.387-1.349H20.74l-.392 1.349h-1.213l1.841-5.69h1.47l1.848 5.69zm-.666-2.357-.365-1.24q-.023-.07-.07-.23l-.1-.348q-.051-.194-.097-.388-.047-.193-.066-.33-.016.086-.043.202-.023.117-.058.249-.031.128-.066.26l-.066.247q-.03.117-.058.206l-.035.132-.36 1.24z" transform="translate(.237)"/>
        <path style="font-weight:700;font-size:5.64444px;font-family:'Droid Sans';-inkscape-font-specification:'Droid Sans';letter-spacing:.717021px;fill:#32cd32;stroke-width:22.2666;fill-opacity:1" d="m30.833 21.306-.558-1.941h-2.811l-.564 1.94h-1.746l2.65-8.189h2.114l2.662 8.19zm-.96-3.392-.523-1.785q-.034-.1-.101-.33-.067-.228-.145-.502-.073-.278-.14-.558-.066-.278-.094-.474-.023.123-.062.29-.033.168-.083.357-.045.185-.095.374l-.095.357q-.045.168-.084.296l-.05.19-.519 1.785z" transform="translate(.237)"/>
    </g>
</svg>
