<svg width="220" height="220" viewBox="0 0 58.208 58.208" xml:space="preserve" xmlns="http://www.w3.org/2000/svg">
    <path style="fill:#ff4c4c;stroke:none;stroke-width:.0939298" d="M29.104 1.323A27.781 27.781 0 0 0 1.323 29.104a27.781 27.781 0 0 0 27.781 27.782 27.781 27.781 0 0 0 27.781-27.782 27.781 27.781 0 0 0-27.78-27.781Zm-3.513 2.344 3.163 6.015-1.359.233-.693-1.436-2.187.376-.179 1.585-1.358.233.968-6.724zm8.668.14 2.855.653-.173.756-.845.177-.93 4.06.684.527-.173.755-2.854-.653.173-.755.845-.177.929-4.06-.683-.528zm-9.33.894c-.002.065-.005.143-.01.234a14.5 14.5 0 0 1-.041.592l-.026.29c-.009.091-.017.172-.026.242l-.014.154-.165 1.458 1.55-.266-.647-1.319a8.342 8.342 0 0 1-.122-.242 64.54 64.54 0 0 1-.18-.372 24.044 24.044 0 0 1-.183-.415 4.182 4.182 0 0 1-.137-.356zm-9.27 2.317.626.926-1.944 1.315.93 1.375L17.08 9.41l.624.923-1.81 1.223 1.426 2.108-1.113.752-3.605-5.333zm28.102.307 1.13.766-2.98 4.395 1.94 1.315-.633.933-3.069-2.08zm-14.657 3.94a17.84 17.84 0 0 1 15.91 9.907h-31.82a17.84 17.84 0 0 1 15.91-9.907zM13.284 37.23H44.98a17.84 17.84 0 0 1-15.876 9.713 17.84 17.84 0 0 1-15.82-9.713zm4.573 7.167 2.741 2.47-.749.83-1.743-1.57-1.111 1.233 1.622 1.461-.745.828-1.623-1.462-1.703 1.89-.998-.898zm20.844 1.339 3.503 3.99 1.76-1.545.744.847-2.786 2.446-4.247-4.838zm-4.395 2.667.2.749-.664.551 1.078 4.023.851.146.2.749-2.828.758-.2-.749.663-.552-1.078-4.023-.85-.146-.2-.748zm-9.369.315 1.628.365.632 6.767-1.344-.302-.094-1.591-2.165-.487-.77 1.397-1.344-.302zm.622 1.069c-.026.06-.058.131-.097.213a14.439 14.439 0 0 1-.264.532l-.135.258a7.01 7.01 0 0 1-.116.213l-.071.138-.709 1.284 1.534.345-.095-1.465a8.288 8.288 0 0 1-.02-.271 63.309 63.309 0 0 1-.025-.412 24.838 24.838 0 0 1-.01-.453c-.003-.151 0-.279.008-.382z"/>
</svg>
