<?xml version="1.0" encoding="UTF-8" standalone="no"?>
<!-- Created with Inkscape (http://www.inkscape.org/) -->

<svg
   width="220"
   height="220"
   viewBox="0 0 58.208332 58.208333"
   version="1.1"
   id="svg1"
   xml:space="preserve"
   xmlns="http://www.w3.org/2000/svg"
   xmlns:svg="http://www.w3.org/2000/svg"><defs
     id="defs1" /><g
     id="layer1"><path
       id="path46"
       style="opacity:0.669558;fill:#fc0000;fill-opacity:1;stroke:none;stroke-width:0.0939298"
       d="M 29.104166,1.3228247 A 27.781287,27.781287 0 0 0 1.3229172,29.104079 27.781287,27.781287 0 0 0 29.104166,56.885509 27.781287,27.781287 0 0 0 56.885416,29.104079 27.781287,27.781287 0 0 0 29.104166,1.3228247 Z m -3.513567,2.344029 3.163164,6.015186 -1.358314,0.233174 -0.693101,-1.435734 -2.187173,0.375353 -0.179054,1.5854343 -1.358315,0.232991 0.968102,-6.7240643 z m 8.668892,0.140345 2.854223,0.65329 -0.173,0.755475 -0.844454,0.177036 -0.929394,4.060086 0.683379,0.526888 -0.173001,0.7554763 -2.854038,-0.653474 0.172815,-0.7552923 0.844635,-0.177036 0.929394,-4.060269 -0.683378,-0.526888 z m -9.331355,0.893618 c -7.1e-4,0.06563 -0.0037,0.143643 -0.009,0.233908 -0.0025,0.08977 -0.0083,0.186113 -0.01743,0.288945 -0.0068,0.09944 -0.01465,0.200427 -0.02385,0.303254 -0.0092,0.102831 -0.01798,0.19965 -0.02623,0.290412 -0.0082,0.09076 -0.01668,0.17123 -0.0255,0.241246 -0.006,0.06951 -0.01058,0.120971 -0.01376,0.154287 l -0.165295,1.457749 1.549294,-0.265829 -0.646319,-1.318505 c -0.0263,-0.0491 -0.06693,-0.130057 -0.121998,-0.242714 -0.05507,-0.112656 -0.114961,-0.236325 -0.179788,-0.371133 -0.06244,-0.138197 -0.123553,-0.276653 -0.18309,-0.415346 -0.05954,-0.138694 -0.105201,-0.2575 -0.137043,-0.356274 z m -9.268977,2.317061 0.626322,0.926458 -1.944277,1.314285 0.929576,1.3751933 1.809252,-1.2229243 0.623938,0.9227893 -1.809436,1.223107 1.425277,2.108287 -1.112666,0.752175 -3.604746,-5.3330943 z m 28.102299,0.307474 1.129727,0.765933 -2.97989,4.3950773 1.938774,1.31447 -0.632562,0.932877 -3.0685,-2.080399 z M 29.104166,11.264906 a 17.83931,17.83931 0 0 1 15.909753,9.906856 H 13.194415 a 17.83931,17.83931 0 0 1 15.909751,-9.906856 z m -15.81949,25.965023 h 31.69567 a 17.83931,17.83931 0 0 1 -15.87618,9.7135 17.83931,17.83931 0 0 1 -15.81949,-9.7135 z m 4.57248,7.16675 2.74103,2.47006 -0.748688,0.83069 -1.743391,-1.57094 -1.111198,1.2332 1.622309,1.46179 -0.745569,0.82757 -1.622493,-1.46179 -1.703581,1.89053 -0.997639,-0.89894 z m 20.84401,1.33905 3.503293,3.99037 1.760268,-1.54544 0.743552,0.84702 -2.785975,2.44603 -4.246846,-4.83739 z m -4.39563,2.66728 0.20052,0.7485 -0.663564,0.55147 1.077993,4.0234 0.850507,0.14585 0.200517,0.7485 -2.828172,0.75786 -0.200517,-0.7485 0.663564,-0.55166 -1.078178,-4.02321 -0.850322,-0.14585 -0.200702,-0.7485 z m -9.368043,0.31463 1.627997,0.36581 0.631825,6.76681 -1.344556,-0.30215 -0.09356,-1.59149 -2.165158,-0.48653 -0.769786,1.39739 -1.344739,-0.30215 z m 0.621552,1.06937 c -0.02561,0.0604 -0.05806,0.13121 -0.09742,0.21263 -0.03649,0.082 -0.07856,0.16892 -0.126218,0.2605 -0.04415,0.0894 -0.09012,0.17994 -0.137776,0.27152 -0.04766,0.0916 -0.09262,0.17772 -0.134841,0.25849 -0.04222,0.0808 -0.08073,0.15182 -0.115578,0.21318 -0.03199,0.062 -0.05588,0.10784 -0.07155,0.13741 l -0.708327,1.28474 1.533516,0.34472 -0.09485,-1.46545 c -0.0056,-0.0554 -0.01238,-0.14564 -0.02036,-0.27078 -0.008,-0.12515 -0.01621,-0.26234 -0.02477,-0.41168 -0.005,-0.15156 -0.0086,-0.30277 -0.01082,-0.45369 -0.0022,-0.15092 7.81e-4,-0.27814 0.009,-0.38159 z" /></g></svg>
