<svg width="220" height="220" viewBox="0 0 58.208 58.208" xmlns="http://www.w3.org/2000/svg"><defs><path id="b" d="M15.732-97.884h21.592v13.794H15.732z"/><path id="a" d="M8.278-96.174h29.015v9.35H8.278z"/></defs><path style="color:#000;opacity:.84022;fill:#ff4c4c;stroke-width:.999998;-inkscape-stroke:none" d="M-387.77 162.628c-48.069 0-89.046 30.59-104.543 73.34h-16.929a4 4 0 0 0-4 4 4 4 0 0 0 4 4h242.946a4 4 0 0 0 4-4 4 4 0 0 0-4-4h-16.929c-15.498-42.75-56.475-73.34-104.545-73.34zm0 8c43.662 0 80.905 27.067 95.984 65.34h-11.925c-14.466-32.043-46.653-54.405-84.059-54.405-37.405 0-69.592 22.362-84.057 54.405h-11.924c15.078-38.273 52.32-65.34 95.981-65.34zm0 18.935c32.956 0 61.434 18.874 75.28 46.405h-150.559c13.847-27.531 42.324-46.405 75.28-46.405zm-121.472 112.705a4 4 0 0 0-4 4 4 4 0 0 0 4 4h16.44c15.11 43.47 56.45 74.717 105.032 74.717 48.584 0 89.924-31.248 105.035-74.717h16.44a4 4 0 0 0 4-4 4 4 0 0 0-4-4zm24.948 8h11.88c14.157 32.773 46.71 55.781 84.644 55.781 37.935 0 70.488-23.008 84.646-55.78h11.88c-14.718 39-52.34 66.716-96.526 66.716-44.185 0-81.806-27.715-96.524-66.717zm20.603 0h151.845c-13.584 28.27-42.428 47.781-75.924 47.781-33.495 0-62.338-19.512-75.921-47.78z" transform="translate(114.96 -31.52) scale(.22141)"/><path style="font-weight:700;font-size:5.64444px;font-family:'Droid Sans';-inkscape-font-specification:'Droid Sans';text-align:center;letter-spacing:.264583px;text-anchor:middle;opacity:.84022;fill:#ff4c4c;stroke-width:75.3881;stroke-linecap:round" d="m-441.758 352.648-8.925.08c4.536-14.052 5.11-25.328-.29-33.934 6.859-5.508 12.864-14.885 19.79-25.148a99.306 99.306 0 0 1 4.316 16.579c-4.785 3.933-9.473 7.594-14.376 10.337.427 3.975.213 8.509.164 11.449 5.074-1.193 9.939-2.912 14.742-4.804.116 2.796.202 5.144.303 7.352-4.875 1.359-9.827 2.623-14.95 3.542.213 3.78 1.07 8.553-.774 14.547zm49.78-.399c-.56-7.417-1.245-12.25-2.133-16.743-1.302.075-2.618.17-3.945.281-3.326.292-6.68.765-10.11 1.338a185.252 185.252 0 0 1-4.308 15.22l-.23.003-8.901.086c4.305-10.623 8.113-24.32 9.348-36.208.963-9.311 1.306-23.282-1.482-46.163 3.209-3.327 6.669-6.316 10.449-8.694a38.57 38.57 0 0 1 3.137-1.778c3.923 18.797 6.976 39.483 8.197 46.929 1.834 11.195 2.9 15.96 4.39 22.594 1.425 6.346 2.626 12.346 4.645 23.136l-4.831-.002h-4.226zm-4.182-26.126c-.777-3.205-1.47-6.16-2.359-10.38a510.08 510.08 0 0 1-.78-3.744c-.148-.657-.375-1.738-.705-3.378-.36-1.794-.676-3.4-1.154-5.815l-1.405-7.557a372.193 372.193 0 0 1-1.336-7.475c.08 1.476.146 3.177.19 5.038a138 138 0 0 1 .079 5.637c.003 1.833-.02 3.593-.065 5.281-.046 1.68-.105 3.18-.17 4.503-.064 1.323-.14 2.444-.217 3.372-.057.91-.108 1.595-.14 1.997a144.582 144.582 0 0 1-1.999 14.447c2.71-.672 5.38-1.24 8.043-1.647.675-.1 1.348-.194 2.018-.28zm37.282 26.254-4.373-.04c-4.46-.036-8.891-.065-13.334-.076l-1.642-.004c-.29-3.645-.456-6.77-.55-9.477a45.231 45.231 0 0 1 4.797-3.267c-.13-5.403.282-25.42 2.79-46.491-.947-2.114-2.264-5.095-3.21-7.209a519.52 519.52 0 0 0-1.58-3.525 743.177 743.177 0 0 1 2.467-21.917 35.43 35.43 0 0 1 2.193 1.207c5.839 3.486 10.865 8.55 15.314 14.074a122.952 122.952 0 0 1 4.19 5.53 182.384 182.384 0 0 0-4.109 15.629 52.281 52.281 0 0 0-6.164 2.138c-2.87 17.681-3.333 37.148-3.183 41.572l.82.588a650.007 650.007 0 0 0 4.47 3.188 78.968 78.968 0 0 0 1.104 8.08zm10.093.105c-1.18-5.027-3.267-35.246 5.606-58.235l2.041 3.236c1.697 2.683 3.358 5.278 5.006 7.718-9.333 20.454-5.206 28.722-4.879 39.249 5.26.792 10.606 1.48 16.088 1.924-.12 1.879-.036 3.937.75 6.357-7.34-.058-14.724-.14-22.042-.22.292.002-2.862-.032-2.57-.03z" aria-label="FAIL" transform="matrix(.22141 0 0 .0951 114.885 -13.37)"/><path style="font-weight:700;font-size:5.64444px;font-family:'Droid Sans';-inkscape-font-specification:'Droid Sans';text-align:center;letter-spacing:.264583px;text-anchor:middle;opacity:.84022;fill:#ff4c4c;stroke-width:49.4059;stroke-linecap:round" d="M-442.833 333.565a181.575 181.575 0 0 1-7.743-6.125c3.033-3.832 2.933-8.82-.298-14.965 8.188-.095 16.373-.181 24.554-.25.295 1.895.517 3.77.667 5.626-5.077-.4-10.135-.863-15.177-1.37.415 1.988.635 3.91.661 5.766a261.58 261.58 0 0 0 13.674 3.508 61.221 61.221 0 0 1-.402 5.211c-4.577-1.515-9.066-3.226-13.482-5.07a22.576 22.576 0 0 1-2.454 7.67zm50.401 20.731a313.67 313.67 0 0 1-.728-2.607 509.132 509.132 0 0 1-2.024-7.63c-5.084-.409-10.128-1.284-15.074-2.526a77.555 77.555 0 0 1-4.392 7.927 92.557 92.557 0 0 1-9.287-4.064 44.79 44.79 0 0 0 1.378-1.59c6.826-8.26 11.134-19.308 14.732-31.866 3.7-.022 7.4-.038 11.1-.047 1.453 4.078 2.787 8.167 4.103 12.303 3.234 10.19 6.218 20.173 10.31 29.949a70.07 70.07 0 0 1-10.118.151zm-4.623-17.843a593.349 593.349 0 0 0-2.503-9.274 67.26 67.26 0 0 1-.5-1.695c-.218-.768-.472-1.656-.735-2.571-.249-.948-.494-1.895-.734-2.836a30.12 30.12 0 0 1-.527-2.395c-.068.408-.165.89-.29 1.444a25.198 25.198 0 0 1-.41 1.767 60.034 60.034 0 0 1-.48 1.836c-.17.618-.335 1.198-.491 1.74a34.743 34.743 0 0 1-.443 1.427c-.119.41-.211.719-.271.912a138.687 138.687 0 0 1-3.02 8.327c3.445.59 6.918 1.039 10.404 1.318zm40.549 10.953a97.423 97.423 0 0 1-4.201 1.71c-5.295 2.013-10.805 3.513-16.402 4.394a373.406 373.406 0 0 1-.352-4.97c1.79-1.028 3.553-2.1 5.285-3.195a242.565 242.565 0 0 1-.882-26.089 220.65 220.65 0 0 1-5.096-2.178c.033-1.669.078-3.339.133-5.009a4797.599 4797.599 0 0 1 19.462.09 116.373 116.373 0 0 0-.372 4.377 176.128 176.128 0 0 0-5.232 2.325 138.59 138.59 0 0 0 1.239 24.21 56.217 56.217 0 0 0 5.552.225c.26 1.376.549 2.746.866 4.11zm10.005-4.99c-3.042-9.414-3.684-19.474-1.927-30.18 3.026.025 6.052.053 9.08.083-1.868 7.52-1.88 14.47-.039 20.847 4.775-2.581 9.41-5.407 13.919-8.374.33.704.755 1.373 1.276 2.007-6.983 5.797-14.4 11.166-22.31 15.617z" aria-label="FAIL" transform="translate(114.96 -31.52) scale(.22141)"/></svg>