<svg viewBox="-48.804 119.877 500 675" width="500" height="675" xmlns="http://www.w3.org/2000/svg">
    <path style="fill:#000050;fill-opacity:.0588235;stroke:#000;stroke-width:3.91617px;stroke-linecap:round;stroke-linejoin:round" d="M14.898 295.394c-7.397-24.248 381.506-21.983 363.633 3.213-17.873 25.197.442 22.462.442 22.462 3.204 1.828 4.824 9.325-.515 9.456.186 1.157-9.624 7.083-7.22 9.455-3.95 4.737 3.942 9.861 8.252 10.59 7.049 2.015 3.23 9.805.799 9.319-1.64 3.805-8.489 4.938-12.144 6.944-1.718 1.82-1.677 17.929.374 23.76-.769 2.054 25.259 39.317 25.64 45.076l-.55 260.634c1.12-.728.892 14.618-1.914 16.74 4.328 4.434-30.781 48.003-38.599 47.34-.372.956-21.698 8.87-29.2 8.368-16.297 4.327-199.037 2.671-201.244.666-16.657 1.214-85.515-9.83-87.39-15.348-.493.361-11.283-8.416-11.126-8.531-3.351-2.98-8.111-11.779-8.503-13.19-2.317-3.38-6.754-14.18-7.479-19.982l.007-283.235c.316-2.56 3.645-11.75 4.377-12.59 0 0 11.41-15.619 12.82-17.944 1.409-2.325 3.504-11.17 3.674-12.979.113 0-.444-11.709-1.324-11.89l-12.13-13.86c-1.673-.892-.458-6.492.76-7.407 2.357-1.683 7.312-4.859 7.921-6.372 1.496-2.018 2.928-8.955 3.327-10.302.54-2.173 1.357-9.437-.36-9.34.533-.392-8.614-6.787-9.239-6.927-.975-.954-1.347-6.748-.204-7.874 1.142-1.126 6.702-6.586 7.008-6.951-1.247-.07-10.842-9.354-9.893-9.301z"/>
</svg>
