<svg viewBox="-48.804 119.877 500 675" width="500" height="675" xmlns="http://www.w3.org/2000/svg">
    <g style="fill:none">
        <path style="fill:none;stroke:#000;stroke-width:7px;stroke-linecap:round;stroke-linejoin:round" d="M-10.162 172.801c62.854 33.926 598.97 36.437 626.005-10.644M4.12 188.461c36.208 14.835 264.765 26.238 298.012 22.789m90.655-2.383c21.762 1.958 167.508-8.129 197.203-17.387M44.637 218.222c129.563 26.755 415.364 22.766 474.42 12.333M2.904 249.772c143.01 28.579 342.505 28.058 523.328 12.672M1.521 291.89c144.168 26.455 376.021 28.511 553.369 10.575M68.183 377.638c1.576.445-84.887-43.902 41.852-45.827 126.738-1.924 253.24 11.094 430.589-6.842M1.733 418.186c-.95 175.054-6.979 198.67-3.199 345.742m581.551-360.284c0 .375 28.075-1.166 32.983 25.56 4.909 26.725-.275 192.147.76 341.423M427.996 975.909c138.924-8.065 152.343-18.807 166.908-39.538" transform="matrix(.55945 0 0 .55945 32.155 208.8)"/>
        <path style="fill:none;stroke:#000;stroke-width:7px;stroke-linecap:round;stroke-linejoin:round" d="M18.019 173.083c49.645 27.019 513.89 25.468 565.64-2.594" transform="matrix(.55945 0 0 .55945 32.155 208.8)"/>
    </g>
</svg>
